<svg xmlns="http://www.w3.org/2000/svg" xmlns:xlink="http://www.w3.org/1999/xlink" width="500" zoomAndPan="magnify" viewBox="0 0 375 374.999991" height="500" preserveAspectRatio="xMidYMid meet" version="1.0"><defs><g/></defs><path fill="#ffffff" d="M 273.800781 182.730469 C 273.78125 179.070312 273.75 173.078125 273.734375 169.421875 C 273.71875 165.761719 276.457031 164.25 279.582031 166.066406 C 282.710938 167.878906 287.925781 170.851562 291.054688 172.660156 C 294.183594 174.472656 294.246094 177.464844 291.140625 179.3125 C 288.027344 181.160156 282.773438 184.179688 279.660156 186.027344 C 276.554688 187.875 273.820312 186.390625 273.800781 182.730469 Z M 273.800781 182.730469 " fill-opacity="1" fill-rule="nonzero"/><path fill="#ace85c" d="M 267.214844 173.34375 C 267.429688 160.460938 270.742188 154.429688 274.875 151.515625 C 277.183594 150.210938 279.082031 149.964844 280.855469 149.921875 C 282.164062 149.890625 283.417969 150 284.628906 150.21875 C 288.46875 150.707031 296.910156 153.246094 304.945312 160.664062 C 300.675781 149.757812 287.65625 142.308594 275.730469 144.046875 C 266.566406 145.375 258.609375 152.886719 257.839844 169.273438 C 257.179688 183.332031 263.410156 192.257812 268.1875 191.03125 C 267.671875 184.296875 267.136719 177.933594 267.214844 173.34375 Z M 267.214844 173.34375 " fill-opacity="1" fill-rule="nonzero"/><path fill="#ef476f" d="M 285.324219 189.144531 C 274.089844 195.453125 267.210938 195.632812 262.613281 193.53125 C 260.324219 192.191406 259.148438 190.679688 258.222656 189.171875 C 257.535156 188.058594 256.996094 186.921875 256.578125 185.765625 C 255.0625 182.199219 253.003906 173.628906 255.359375 162.953125 C 248.089844 172.136719 248.21875 187.136719 255.726562 196.558594 C 261.5 203.800781 271.996094 206.882812 286.535156 199.292969 C 299.011719 192.777344 303.578125 182.898438 300.109375 179.390625 C 294.5625 183.230469 289.332031 186.894531 285.324219 189.144531 Z M 285.324219 189.144531 " fill-opacity="1" fill-rule="nonzero"/><path fill="#27aae2" d="M 290.058594 165.609375 C 301.0625 172.308594 304.59375 178.214844 305.015625 183.257812 C 304.972656 185.910156 304.226562 187.671875 303.371094 189.222656 C 302.738281 190.367188 302.007812 191.394531 301.210938 192.328125 C 298.847656 195.394531 292.386719 201.394531 281.921875 204.570312 C 293.488281 206.398438 306.496094 198.941406 311.03125 187.773438 C 314.511719 179.191406 312.054688 168.53125 298.308594 159.578125 C 286.515625 151.898438 275.667969 152.761719 274.308594 157.5 C 280.375 160.464844 286.132812 163.222656 290.058594 165.609375 Z M 290.058594 165.609375 " fill-opacity="1" fill-rule="nonzero"/><g fill="#ffffff" fill-opacity="1"><g transform="translate(79.411926, 185.882238)"><g><path d="M -7.59375 11.203125 L -6.15625 3.546875 L -3.703125 3.546875 C -2.535156 3.546875 -1.570312 3.242188 -0.8125 2.640625 C -0.0625 2.046875 0.410156 1.203125 0.609375 0.109375 L 5.796875 -26.703125 L 14.375 -26.703125 L 8.828125 2.046875 C 8.285156 5.066406 7.046875 7.347656 5.109375 8.890625 C 3.171875 10.429688 0.664062 11.203125 -2.40625 11.203125 Z M 15.296875 -30.8125 L 6.421875 -30.8125 L 7.75 -37.703125 L 16.640625 -37.703125 Z M 15.296875 -30.8125 "/></g></g></g><g fill="#ffffff" fill-opacity="1"><g transform="translate(92.504458, 185.882238)"><g><path d="M 14.890625 0.671875 C 12.523438 0.671875 10.304688 0.148438 8.234375 -0.890625 C 6.171875 -1.941406 4.515625 -3.425781 3.265625 -5.34375 C 2.015625 -7.257812 1.390625 -9.429688 1.390625 -11.859375 C 1.390625 -14.671875 2.082031 -17.265625 3.46875 -19.640625 C 4.851562 -22.023438 6.773438 -23.910156 9.234375 -25.296875 C 11.703125 -26.679688 14.476562 -27.375 17.5625 -27.375 C 20 -27.375 22.25 -26.84375 24.3125 -25.78125 C 26.382812 -24.71875 28.035156 -23.226562 29.265625 -21.3125 C 30.503906 -19.394531 31.125 -17.222656 31.125 -14.796875 C 31.125 -11.953125 30.421875 -9.347656 29.015625 -6.984375 C 27.609375 -4.617188 25.671875 -2.75 23.203125 -1.375 C 20.742188 -0.0078125 17.972656 0.671875 14.890625 0.671875 Z M 15.671875 -6.984375 C 17.109375 -6.984375 18.347656 -7.328125 19.390625 -8.015625 C 20.429688 -8.703125 21.234375 -9.597656 21.796875 -10.703125 C 22.367188 -11.816406 22.65625 -12.972656 22.65625 -14.171875 C 22.65625 -15.710938 22.113281 -17.019531 21.03125 -18.09375 C 19.945312 -19.175781 18.550781 -19.71875 16.84375 -19.71875 C 15.4375 -19.71875 14.203125 -19.375 13.140625 -18.6875 C 12.085938 -18.007812 11.285156 -17.113281 10.734375 -16 C 10.179688 -14.882812 9.90625 -13.710938 9.90625 -12.484375 C 9.90625 -10.941406 10.441406 -9.640625 11.515625 -8.578125 C 12.597656 -7.515625 13.984375 -6.984375 15.671875 -6.984375 Z M 15.671875 -6.984375 "/></g></g></g><g fill="#ffffff" fill-opacity="1"><g transform="translate(123.003737, 185.882238)"><g><path d="M 36.828125 -27.375 C 39.492188 -27.375 41.648438 -26.539062 43.296875 -24.875 C 44.941406 -23.21875 45.765625 -20.988281 45.765625 -18.1875 C 45.765625 -17.15625 45.675781 -16.226562 45.5 -15.40625 L 42.53125 0 L 33.953125 0 L 36.71875 -14.375 C 36.820312 -14.957031 36.875 -15.472656 36.875 -15.921875 C 36.875 -17.117188 36.566406 -18.050781 35.953125 -18.71875 C 35.335938 -19.382812 34.460938 -19.71875 33.328125 -19.71875 C 32.203125 -19.71875 31.242188 -19.34375 30.453125 -18.59375 C 29.671875 -17.84375 29.125 -16.710938 28.8125 -15.203125 L 25.890625 0 L 17.3125 0 L 20.078125 -14.375 C 20.179688 -14.957031 20.234375 -15.472656 20.234375 -15.921875 C 20.234375 -17.117188 19.925781 -18.050781 19.3125 -18.71875 C 18.695312 -19.382812 17.820312 -19.71875 16.6875 -19.71875 C 15.5625 -19.71875 14.601562 -19.34375 13.8125 -18.59375 C 13.03125 -17.84375 12.484375 -16.710938 12.171875 -15.203125 L 9.25 0 L 0.671875 0 L 5.859375 -26.703125 L 13.609375 -26.703125 L 13.140625 -24.453125 C 15.203125 -26.398438 17.550781 -27.375 20.1875 -27.375 C 21.894531 -27.375 23.414062 -26.988281 24.75 -26.21875 C 26.09375 -25.445312 27.101562 -24.410156 27.78125 -23.109375 C 30.382812 -25.953125 33.398438 -27.375 36.828125 -27.375 Z M 36.828125 -27.375 "/></g></g></g><g fill="#ffffff" fill-opacity="1"><g transform="translate(169.112624, 185.882238)"><g><path d="M 14.890625 0.671875 C 12.523438 0.671875 10.304688 0.148438 8.234375 -0.890625 C 6.171875 -1.941406 4.515625 -3.425781 3.265625 -5.34375 C 2.015625 -7.257812 1.390625 -9.429688 1.390625 -11.859375 C 1.390625 -14.671875 2.082031 -17.265625 3.46875 -19.640625 C 4.851562 -22.023438 6.773438 -23.910156 9.234375 -25.296875 C 11.703125 -26.679688 14.476562 -27.375 17.5625 -27.375 C 20 -27.375 22.25 -26.84375 24.3125 -25.78125 C 26.382812 -24.71875 28.035156 -23.226562 29.265625 -21.3125 C 30.503906 -19.394531 31.125 -17.222656 31.125 -14.796875 C 31.125 -11.953125 30.421875 -9.347656 29.015625 -6.984375 C 27.609375 -4.617188 25.671875 -2.75 23.203125 -1.375 C 20.742188 -0.0078125 17.972656 0.671875 14.890625 0.671875 Z M 15.671875 -6.984375 C 17.109375 -6.984375 18.347656 -7.328125 19.390625 -8.015625 C 20.429688 -8.703125 21.234375 -9.597656 21.796875 -10.703125 C 22.367188 -11.816406 22.65625 -12.972656 22.65625 -14.171875 C 22.65625 -15.710938 22.113281 -17.019531 21.03125 -18.09375 C 19.945312 -19.175781 18.550781 -19.71875 16.84375 -19.71875 C 15.4375 -19.71875 14.203125 -19.375 13.140625 -18.6875 C 12.085938 -18.007812 11.285156 -17.113281 10.734375 -16 C 10.179688 -14.882812 9.90625 -13.710938 9.90625 -12.484375 C 9.90625 -10.941406 10.441406 -9.640625 11.515625 -8.578125 C 12.597656 -7.515625 13.984375 -6.984375 15.671875 -6.984375 Z M 15.671875 -6.984375 "/></g></g></g><g fill="#ffffff" fill-opacity="1"><g transform="translate(199.611903, 185.882238)"><g><path d="M 13.859375 -9.8125 L 23.265625 -26.703125 L 32.453125 -26.703125 L 16.125 0 L 8.46875 0 L 2.40625 -26.703125 L 10.890625 -26.703125 Z M 13.859375 -9.8125 "/></g></g></g><g fill="#ffffff" fill-opacity="1"><g transform="translate(227.800569, 185.882238)"><g><path d="M 9.25 0 L 0.671875 0 L 5.859375 -26.703125 L 14.375 -26.703125 Z M 15.296875 -30.8125 L 6.421875 -30.8125 L 7.75 -37.703125 L 16.640625 -37.703125 Z M 15.296875 -30.8125 "/></g></g></g><g fill="#8dc641" fill-opacity="1"><g transform="translate(92.633199, 197.821921)"><g><path d="M 6.953125 -1.703125 L 7.84375 -6.8125 L 9.6875 -6.8125 L 8.28125 0 L 5.8125 0 L 4.859375 -3.71875 L 3.9375 0 L 1.484375 0 L 0.078125 -6.8125 L 1.921875 -6.8125 L 2.8125 -1.703125 L 4.0625 -6.8125 L 5.640625 -6.8125 Z M 6.953125 -1.703125 "/></g></g></g><g fill="#8dc641" fill-opacity="1"><g transform="translate(105.041669, 197.821921)"><g><path d="M 7.25 0 L 5.359375 0 L 4.875 -1.390625 L 2.453125 -1.390625 L 1.984375 0 L 0.078125 0 L 2.3125 -6.8125 L 5.015625 -6.8125 Z M 4.578125 -2.796875 L 3.671875 -5.59375 L 2.765625 -2.796875 Z M 4.578125 -2.796875 "/></g></g></g><g fill="#8dc641" fill-opacity="1"><g transform="translate(115.017337, 197.821921)"><g><path d="M 3.90625 0 L 2.109375 0 L 2.109375 -5.4375 L 0.140625 -5.4375 L 0.140625 -6.8125 L 5.859375 -6.8125 L 5.859375 -5.4375 L 3.90625 -5.4375 Z M 3.90625 0 "/></g></g></g><g fill="#8dc641" fill-opacity="1"><g transform="translate(123.666017, 197.821921)"><g><path d="M 3.859375 -1.296875 C 4.316406 -1.296875 4.679688 -1.382812 4.953125 -1.5625 C 5.222656 -1.738281 5.359375 -2 5.359375 -2.34375 L 7.1875 -2.34375 C 7.070312 -1.613281 6.71875 -1.03125 6.125 -0.59375 C 5.539062 -0.15625 4.785156 0.0625 3.859375 0.0625 C 2.671875 0.0625 1.75 -0.328125 1.09375 -1.109375 C 0.570312 -1.734375 0.3125 -2.476562 0.3125 -3.34375 C 0.3125 -4.257812 0.570312 -5.050781 1.09375 -5.71875 C 1.75 -6.53125 2.671875 -6.9375 3.859375 -6.9375 C 4.785156 -6.9375 5.539062 -6.71875 6.125 -6.28125 C 6.71875 -5.84375 7.070312 -5.257812 7.1875 -4.53125 L 5.359375 -4.53125 C 5.359375 -4.875 5.226562 -5.128906 4.96875 -5.296875 C 4.707031 -5.472656 4.351562 -5.5625 3.90625 -5.5625 C 3.375 -5.5625 2.941406 -5.347656 2.609375 -4.921875 C 2.273438 -4.503906 2.109375 -3.976562 2.109375 -3.34375 C 2.109375 -2.726562 2.265625 -2.234375 2.578125 -1.859375 C 2.898438 -1.484375 3.328125 -1.296875 3.859375 -1.296875 Z M 3.859375 -1.296875 "/></g></g></g><g fill="#8dc641" fill-opacity="1"><g transform="translate(133.804645, 197.821921)"><g><path d="M 2.34375 0 L 0.546875 0 L 0.546875 -6.8125 L 2.34375 -6.8125 L 2.34375 -3.984375 L 4.8125 -3.984375 L 4.8125 -6.8125 L 6.59375 -6.8125 L 6.59375 0 L 4.8125 0 L 4.8125 -2.578125 L 2.34375 -2.578125 Z M 2.34375 0 "/></g></g></g><g fill="#27aae2" fill-opacity="1"><g transform="translate(148.087342, 197.821921)"><g><path d="M 0.546875 -6.8125 L 5.6875 -6.8125 L 5.6875 -5.4375 L 2.34375 -5.4375 L 2.34375 -4.078125 L 4.875 -4.078125 L 4.875 -2.671875 L 2.34375 -2.671875 L 2.34375 -1.375 L 5.6875 -1.375 L 5.6875 0 L 0.546875 0 Z M 0.546875 -6.8125 "/></g></g></g><g fill="#27aae2" fill-opacity="1"><g transform="translate(156.782586, 197.821921)"><g><path d="M 7.25 0 L 5.359375 0 L 4.875 -1.390625 L 2.453125 -1.390625 L 1.984375 0 L 0.078125 0 L 2.3125 -6.8125 L 5.015625 -6.8125 Z M 4.578125 -2.796875 L 3.671875 -5.59375 L 2.765625 -2.796875 Z M 4.578125 -2.796875 "/></g></g></g><g fill="#27aae2" fill-opacity="1"><g transform="translate(166.758253, 197.821921)"><g><path d="M 6.453125 -4.40625 C 6.453125 -4.007812 6.347656 -3.613281 6.140625 -3.21875 C 5.929688 -2.832031 5.628906 -2.519531 5.234375 -2.28125 L 6.328125 0 L 4.34375 0 L 3.40625 -1.984375 L 2.34375 -1.984375 L 2.34375 0 L 0.546875 0 L 0.546875 -6.8125 L 3.71875 -6.8125 C 4.613281 -6.8125 5.289062 -6.578125 5.75 -6.109375 C 6.21875 -5.648438 6.453125 -5.082031 6.453125 -4.40625 Z M 2.34375 -3.34375 L 3.625 -3.34375 C 3.925781 -3.34375 4.175781 -3.4375 4.375 -3.625 C 4.570312 -3.8125 4.671875 -4.0625 4.671875 -4.375 C 4.671875 -4.695312 4.570312 -4.953125 4.375 -5.140625 C 4.175781 -5.335938 3.925781 -5.4375 3.625 -5.4375 L 2.34375 -5.4375 Z M 2.34375 -3.34375 "/></g></g></g><g fill="#27aae2" fill-opacity="1"><g transform="translate(176.105344, 197.821921)"><g><path d="M 2.34375 -4.140625 L 2.34375 0 L 0.546875 0 L 0.546875 -6.8125 L 2.5625 -6.8125 L 5.25 -2.765625 L 5.25 -6.8125 L 7.046875 -6.8125 L 7.046875 0 L 5.078125 0 Z M 2.34375 -4.140625 "/></g></g></g><g fill="#f15b27" fill-opacity="1"><g transform="translate(190.907243, 197.821921)"><g><path d="M 6.453125 -4.40625 C 6.453125 -4.007812 6.347656 -3.613281 6.140625 -3.21875 C 5.929688 -2.832031 5.628906 -2.519531 5.234375 -2.28125 L 6.328125 0 L 4.34375 0 L 3.40625 -1.984375 L 2.34375 -1.984375 L 2.34375 0 L 0.546875 0 L 0.546875 -6.8125 L 3.71875 -6.8125 C 4.613281 -6.8125 5.289062 -6.578125 5.75 -6.109375 C 6.21875 -5.648438 6.453125 -5.082031 6.453125 -4.40625 Z M 2.34375 -3.34375 L 3.625 -3.34375 C 3.925781 -3.34375 4.175781 -3.4375 4.375 -3.625 C 4.570312 -3.8125 4.671875 -4.0625 4.671875 -4.375 C 4.671875 -4.695312 4.570312 -4.953125 4.375 -5.140625 C 4.175781 -5.335938 3.925781 -5.4375 3.625 -5.4375 L 2.34375 -5.4375 Z M 2.34375 -3.34375 "/></g></g></g><g fill="#f15b27" fill-opacity="1"><g transform="translate(200.254333, 197.821921)"><g><path d="M 0.546875 -6.8125 L 5.6875 -6.8125 L 5.6875 -5.4375 L 2.34375 -5.4375 L 2.34375 -4.078125 L 4.875 -4.078125 L 4.875 -2.671875 L 2.34375 -2.671875 L 2.34375 -1.375 L 5.6875 -1.375 L 5.6875 0 L 0.546875 0 Z M 0.546875 -6.8125 "/></g></g></g><g fill="#f15b27" fill-opacity="1"><g transform="translate(208.949576, 197.821921)"><g><path d="M 0.546875 0 L 0.546875 -6.8125 L 3.640625 -6.8125 C 4.546875 -6.8125 5.238281 -6.578125 5.71875 -6.109375 C 6.207031 -5.640625 6.453125 -5.066406 6.453125 -4.390625 C 6.453125 -3.722656 6.207031 -3.148438 5.71875 -2.671875 C 5.238281 -2.203125 4.546875 -1.96875 3.640625 -1.96875 L 2.34375 -1.96875 L 2.34375 0 Z M 2.34375 -3.34375 L 3.625 -3.34375 C 3.925781 -3.34375 4.175781 -3.4375 4.375 -3.625 C 4.570312 -3.8125 4.671875 -4.0625 4.671875 -4.375 C 4.671875 -4.695312 4.570312 -4.953125 4.375 -5.140625 C 4.175781 -5.335938 3.925781 -5.4375 3.625 -5.4375 L 2.34375 -5.4375 Z M 2.34375 -3.34375 "/></g></g></g><g fill="#f15b27" fill-opacity="1"><g transform="translate(218.238468, 197.821921)"><g><path d="M 0.546875 -6.8125 L 5.6875 -6.8125 L 5.6875 -5.4375 L 2.34375 -5.4375 L 2.34375 -4.078125 L 4.875 -4.078125 L 4.875 -2.671875 L 2.34375 -2.671875 L 2.34375 -1.375 L 5.6875 -1.375 L 5.6875 0 L 0.546875 0 Z M 0.546875 -6.8125 "/></g></g></g><g fill="#f15b27" fill-opacity="1"><g transform="translate(226.933711, 197.821921)"><g><path d="M 7.25 0 L 5.359375 0 L 4.875 -1.390625 L 2.453125 -1.390625 L 1.984375 0 L 0.078125 0 L 2.3125 -6.8125 L 5.015625 -6.8125 Z M 4.578125 -2.796875 L 3.671875 -5.59375 L 2.765625 -2.796875 Z M 4.578125 -2.796875 "/></g></g></g><g fill="#f15b27" fill-opacity="1"><g transform="translate(236.909377, 197.821921)"><g><path d="M 3.90625 0 L 2.109375 0 L 2.109375 -5.4375 L 0.140625 -5.4375 L 0.140625 -6.8125 L 5.859375 -6.8125 L 5.859375 -5.4375 L 3.90625 -5.4375 Z M 3.90625 0 "/></g></g></g></svg>